<svg id="Layer_1" data-name="Layer 1" xmlns="http://www.w3.org/2000/svg" viewBox="0 0 935.43 289.13"><defs><style>.cls-1{fill:#fff;}</style></defs><title>alma logos epsArtboard copy 4</title><path class="cls-1" d="M881,38.66h-82.5V107.2H669.15V250.55H812.49V121.16H881ZM798.52,236.58H683.12V121.17h115.4Z"/><path class="cls-1" d="M74.36,200.89c-2.67,5-8.51,7.74-14.1,7.74-11,0-20.37-9.07-20.37-23s9.37-23,20.37-23c5.59,0,11.43,2.55,14.1,7.56v-6.61h7.73v44.11H74.36ZM61,171c-7.22,0-13.07,5.67-13.07,14.45S53.73,200.22,61,200.22s13.32-5.38,13.32-14.73S67.39,171,61,171Z"/><path class="cls-1" d="M99.89,139.59v68.1H92.06v-68.1Z"/><path class="cls-1" d="M145.35,183.88v23.81h-7.82v-25c0-7.28-3.44-11.62-8.68-11.62-5.59,0-11.17,3.59-11.17,12.84v23.81h-7.82V163.58h7.82v6.61c2.15-4.91,7.82-7.08,11.09-7.37a16.54,16.54,0,0,1,4.38.29,13,13,0,0,1,10.49,8.59c3.69-7.84,10-9.07,13.92-9.07,10.06,0,15.47,7.18,15.47,19.55v25.51h-7.82V182.75c0-7.27-3.44-11.71-9.2-11.71C149.39,170.94,145.35,176.52,145.35,183.88Z"/><path class="cls-1" d="M214.29,200.89c-2.66,5-8.51,7.74-14.1,7.74-11,0-20.37-9.07-20.37-23s9.37-23,20.37-23c5.59,0,11.44,2.55,14.1,7.56v-6.61H222v44.11h-7.74ZM200.88,171c-7.22,0-13.06,5.67-13.06,14.45s5.84,14.73,13.06,14.73,13.32-5.38,13.32-14.73S207.33,171,200.88,171Z"/><path class="cls-1" d="M289,187.47H253.14c.69,10.3,7.65,16.91,16.25,16.91a15.76,15.76,0,0,0,14-8.41l3.69,1.42a19.32,19.32,0,0,1-17.7,11.24c-11.26,0-20.2-9.16-20.2-23.14s8.94-22.86,20.2-22.86c11.43,0,19.68,9,19.68,22.86A14.58,14.58,0,0,1,289,187.47Zm-35.84-4h32c-.78-10.2-7.05-16.63-15.73-16.63S253.91,173.31,253.14,183.51Z"/><path class="cls-1" d="M328.78,203.34A20.11,20.11,0,0,1,315,208.63c-11.43,0-20.89-9.16-20.89-23.14s9.46-22.86,20.89-22.86a20.89,20.89,0,0,1,13.66,5.2L326.2,171A17.39,17.39,0,0,0,315,166.88c-9.28,0-17,7.28-17,18.61s7.74,18.89,17,18.89a16.64,16.64,0,0,0,11.17-4.25Z"/><path class="cls-1" d="M332.56,185.49c0-14,9.46-22.86,21-22.86s21,8.88,21,22.86-9.54,23.14-21,23.14S332.56,199.56,332.56,185.49Zm38.08,0c0-11.43-7.74-18.61-17.1-18.61s-17.11,7.18-17.11,18.61,7.74,18.89,17.11,18.89S370.64,196.92,370.64,185.49Z"/><path class="cls-1" d="M383,163.58h4v8.69c2.32-7,8.77-9.64,14.18-9.64,9.54,0,16.08,7.28,16,19.18v25.88h-3.87V181.81c0-9.26-5-14.93-12.12-14.93s-14,4.35-14.18,16.06v24.75h-4Z"/><path class="cls-1" d="M425.13,185.49c0-14,9.46-22.86,21-22.86s21,8.88,21,22.86-9.54,23.14-21,23.14S425.13,199.56,425.13,185.49Zm38.08,0c0-11.43-7.73-18.61-17.1-18.61S429,174.06,429,185.49s7.74,18.89,17.11,18.89S463.21,196.92,463.21,185.49Z"/><path class="cls-1" d="M505.85,207.69V181.81c0-9.26-5-14.93-12.12-14.93s-14,4.35-14.19,16.06v24.75h-4V163.58h4v8.69c2.32-7,9.11-9.64,14.19-9.64,7.22,0,12.63,4.06,14.78,11.43,2.66-9.35,10.31-11.43,15.47-11.43,9.46,0,16.07,7.28,16,19.18v25.88H536.1V181.81c0-9.26-5-14.93-12.12-14.93s-14,4.35-14.27,16.06v24.75Z"/><path class="cls-1" d="M552.69,143.74a3.5,3.5,0,0,1,0,7,3.5,3.5,0,0,1,0-7Zm-1.89,19.84v44.11h3.87V163.58Z"/><path class="cls-1" d="M597.82,203.34a20.12,20.12,0,0,1-13.76,5.29c-11.43,0-20.88-9.16-20.88-23.14s9.45-22.86,20.88-22.86a20.92,20.92,0,0,1,13.67,5.2L595.24,171a17.39,17.39,0,0,0-11.18-4.16c-9.28,0-17,7.28-17,18.61s7.74,18.89,17,18.89a16.67,16.67,0,0,0,11.18-4.25Z"/><path class="cls-1" d="M628.59,173.68h-3.87c-.69-4.25-4.13-6.89-8.51-6.89-4.56,0-8.34,2.64-8.85,6.42-.78,6.24,3.69,8.22,7,9.07l5.76,1.51c7.3,2,9.88,6.71,9.88,12.18,0,7.56-5.76,12.66-14.09,12.66-6.62,0-13.15-4.25-14.1-12.18h3.61c1.12,3.59,3.61,8,10.74,8,6.11,0,10-3.4,10-8.51,0-3.49-1.8-6.7-6.87-8l-5.85-1.52c-4.81-1.22-10.83-4-9.88-13.79.77-6,6.36-10,12.72-10S627.81,166.41,628.59,173.68Z"/></svg>